<svg xmlns="http://www.w3.org/2000/svg" xmlns:svg="http://www.w3.org/2000/svg" id="Layer_1" width="48" height="48" x="0" y="0" enable-background="new 0 0 48 48" version="1.1" viewBox="0 0 48 48" xml:space="preserve"><metadata id="metadata231"/><rect id="rect25" width="2.286" height="6.857" x="4.571" y="4.571" fill="#333" fill-opacity="1" opacity=".6"/><rect id="rect39" width="2.286" height="6.857" x="6.857" y="4.571" fill="#333" fill-opacity="1" opacity=".6"/><rect id="rect55" width="2.285" height="6.857" x="9.144" y="4.571" fill="#333" fill-opacity="1" opacity=".6"/><rect id="rect33" width="2.286" height="6.857" x="4.571" y="36.57" fill="#333" fill-opacity="1" opacity=".6"/><rect id="rect49" width="2.286" height="6.857" x="6.857" y="36.57" fill="#333" fill-opacity="1" opacity=".6"/><rect id="rect61" width="2.285" height="6.857" x="9.144" y="36.57" fill="#333" fill-opacity="1" opacity=".6"/><rect id="rect5" width="2.285" height="16" x="0" y="0" fill="#333" fill-opacity="1" opacity=".6"/><rect id="rect13" width="2.286" height="2.285" x="2.285" y="0" fill="#333" fill-opacity="1" opacity=".6"/><rect id="rect15" width="2.286" height="2.286" x="2.285" y="13.714" fill="#333" fill-opacity="1" opacity=".6"/><rect id="rect23" width="2.286" height="2.285" x="4.571" y="0" fill="#333" fill-opacity="1" opacity=".6"/><rect id="rect27" width="2.286" height="2.286" x="4.571" y="13.714" fill="#333" fill-opacity="1" opacity=".6"/><rect id="rect37" width="2.286" height="2.285" x="6.857" y="0" fill="#333" fill-opacity="1" opacity=".6"/><rect id="rect41" width="2.286" height="2.286" x="6.857" y="13.714" fill="#333" fill-opacity="1" opacity=".6"/><rect id="rect53" width="2.285" height="2.285" x="9.144" y="0" fill="#333" fill-opacity="1" opacity=".6"/><rect id="rect57" width="2.285" height="2.286" x="9.144" y="13.714" fill="#333" fill-opacity="1" opacity=".6"/><rect id="rect65" width="2.285" height="2.285" x="11.429" y="0" fill="#333" fill-opacity="1" opacity=".6"/><rect id="rect67" width="2.285" height="2.286" x="11.429" y="13.714" fill="#333" fill-opacity="1" opacity=".6"/><rect id="rect75" width="2.286" height="16" x="13.714" y="0" fill="#333" fill-opacity="1" opacity=".6"/><rect id="rect11" width="2.285" height="16" x="0" y="32" fill="#333" fill-opacity="1" opacity=".6"/><rect id="rect19" width="2.286" height="2.285" x="2.285" y="32" fill="#333" fill-opacity="1" opacity=".6"/><rect id="rect21" width="2.286" height="2.286" x="2.285" y="45.714" fill="#333" fill-opacity="1" opacity=".6"/><rect id="rect31" width="2.286" height="2.285" x="4.571" y="32" fill="#333" fill-opacity="1" opacity=".6"/><rect id="rect35" width="2.286" height="2.286" x="4.571" y="45.714" fill="#333" fill-opacity="1" opacity=".6"/><rect id="rect47" width="2.286" height="2.285" x="6.857" y="32" fill="#333" fill-opacity="1" opacity=".6"/><rect id="rect51" width="2.286" height="2.286" x="6.857" y="45.714" fill="#333" fill-opacity="1" opacity=".6"/><rect id="rect59" width="2.285" height="2.285" x="9.144" y="32" fill="#333" fill-opacity="1" opacity=".6"/><rect id="rect63" width="2.285" height="2.286" x="9.144" y="45.714" fill="#333" fill-opacity="1" opacity=".6"/><rect id="rect71" width="2.285" height="2.285" x="11.429" y="32" fill="#333" fill-opacity="1" opacity=".6"/><rect id="rect73" width="2.285" height="2.286" x="11.429" y="45.714" fill="#333" fill-opacity="1" opacity=".6"/><rect id="rect83" width="2.286" height="16" x="13.714" y="32" fill="#333" fill-opacity="1" opacity=".6"/><rect id="rect163" width="2.287" height="6.857" x="36.57" y="4.571" fill="#333" fill-opacity="1" opacity=".6"/><rect id="rect177" width="2.285" height="6.857" x="38.857" y="4.571" fill="#333" fill-opacity="1" opacity=".6"/><rect id="rect191" width="2.287" height="6.857" x="41.143" y="4.571" fill="#333" fill-opacity="1" opacity=".6"/><rect id="rect141" width="2.285" height="16" x="32" y="0" fill="#333" fill-opacity="1" opacity=".6"/><rect id="rect151" width="2.285" height="2.285" x="34.285" y="0" fill="#333" fill-opacity="1" opacity=".6"/><rect id="rect153" width="2.285" height="2.286" x="34.285" y="13.714" fill="#333" fill-opacity="1" opacity=".6"/><rect id="rect161" width="2.287" height="2.285" x="36.57" y="0" fill="#333" fill-opacity="1" opacity=".6"/><rect id="rect165" width="2.287" height="2.286" x="36.57" y="13.714" fill="#333" fill-opacity="1" opacity=".6"/><rect id="rect175" width="2.285" height="2.285" x="38.857" y="0" fill="#333" fill-opacity="1" opacity=".6"/><rect id="rect179" width="2.285" height="2.286" x="38.857" y="13.714" fill="#333" fill-opacity="1" opacity=".6"/><rect id="rect189" width="2.287" height="2.285" x="41.143" y="0" fill="#333" fill-opacity="1" opacity=".6"/><rect id="rect193" width="2.287" height="2.286" x="41.143" y="13.714" fill="#333" fill-opacity="1" opacity=".6"/><rect id="rect203" width="2.284" height="2.285" x="43.43" y="0" fill="#333" fill-opacity="1" opacity=".6"/><rect id="rect205" width="2.284" height="2.286" x="43.43" y="13.714" fill="#333" fill-opacity="1" opacity=".6"/><rect id="rect217" width="2.286" height="16" x="45.714" y="0" fill="#333" fill-opacity="1" opacity=".6"/><rect id="rect7" width="2.285" height="4.572" x="0" y="18.285" fill="#333" fill-opacity="1" opacity=".6"/><rect id="rect17" width="2.286" height="2.287" x="2.285" y="27.428" fill="#333" fill-opacity="1" opacity=".6"/><rect id="rect29" width="2.286" height="6.856" x="4.571" y="20.571" fill="#333" fill-opacity="1" opacity=".6"/><rect id="rect43" width="2.286" height="2.286" x="6.857" y="20.571" fill="#333" fill-opacity="1" opacity=".6"/><rect id="rect45" width="2.286" height="4.572" x="6.857" y="25.143" fill="#333" fill-opacity="1" opacity=".6"/><rect id="rect69" width="2.285" height="2.286" x="11.429" y="22.857" fill="#333" fill-opacity="1" opacity=".6"/><rect id="rect77" width="2.286" height="2.286" x="13.714" y="18.285" fill="#333" fill-opacity="1" opacity=".6"/><rect id="rect79" width="2.286" height="2.286" x="13.714" y="22.857" fill="#333" fill-opacity="1" opacity=".6"/><rect id="rect81" width="2.286" height="2.287" x="13.714" y="27.428" fill="#333" fill-opacity="1" opacity=".6"/><rect id="rect85" width="2.286" height="4.572" x="16" y="20.571" fill="#333" fill-opacity="1" opacity=".6"/><rect id="rect87" width="2.286" height="6.857" x="18.286" y="2.285" fill="#333" fill-opacity="1" opacity=".6"/><rect id="rect89" width="2.286" height="18.286" x="18.286" y="13.714" fill="#333" fill-opacity="1" opacity=".6"/><rect id="rect91" width="2.286" height="2.286" x="18.286" y="45.714" fill="#333" fill-opacity="1" opacity=".6"/><rect id="rect93" width="2.285" height="2.285" x="20.572" y="0" fill="#333" fill-opacity="1" opacity=".6"/><rect id="rect95" width="2.285" height="2.286" x="20.572" y="9.143" fill="#333" fill-opacity="1" opacity=".6"/><rect id="rect97" width="2.285" height="6.857" x="20.572" y="25.143" fill="#333" fill-opacity="1" opacity=".6"/><rect id="rect99" width="2.285" height="2.285" x="20.572" y="34.285" fill="#333" fill-opacity="1" opacity=".6"/><rect id="rect101" width="2.285" height="9.143" x="20.572" y="38.857" fill="#333" fill-opacity="1" opacity=".6"/><rect id="rect103" width="2.286" height="2.285" x="22.857" y="6.857" fill="#333" fill-opacity="1" opacity=".6"/><rect id="rect107" width="2.286" height="6.857" x="22.857" y="18.285" fill="#333" fill-opacity="1" opacity=".6"/><rect id="rect113" width="2.285" height="2.285" x="25.143" y="0" fill="#333" fill-opacity="1" opacity=".6"/><rect id="rect117" width="2.285" height="2.285" x="25.143" y="16" fill="#333" fill-opacity="1" opacity=".6"/><rect id="rect119" width="2.285" height="2.286" x="25.143" y="22.857" fill="#333" fill-opacity="1" opacity=".6"/><rect id="rect121" width="2.285" height="2.285" x="25.143" y="29.715" fill="#333" fill-opacity="1" opacity=".6"/><rect id="rect123" width="2.285" height="2.285" x="25.143" y="34.285" fill="#333" fill-opacity="1" opacity=".6"/><rect id="rect125" width="2.285" height="2.286" x="25.143" y="45.714" fill="#333" fill-opacity="1" opacity=".6"/><rect id="rect127" width="2.286" height="4.572" x="27.428" y="2.285" fill="#333" fill-opacity="1" opacity=".6"/><rect id="rect129" width="2.286" height="13.715" x="27.428" y="9.143" fill="#333" fill-opacity="1" opacity=".6"/><rect id="rect131" width="2.286" height="11.428" x="27.428" y="29.715" fill="#333" fill-opacity="1" opacity=".6"/><rect id="rect135" width="2.286" height="4.572" x="29.714" y="27.428" fill="#333" fill-opacity="1" opacity=".6"/><rect id="rect137" width="2.286" height="2.285" x="29.714" y="34.285" fill="#333" fill-opacity="1" opacity=".6"/><rect id="rect139" width="2.286" height="2.286" x="29.714" y="45.714" fill="#333" fill-opacity="1" opacity=".6"/><rect id="rect145" width="2.285" height="2.286" x="32" y="22.857" fill="#333" fill-opacity="1" opacity=".6"/><rect id="rect149" width="2.285" height="2.287" x="32" y="41.143" fill="#333" fill-opacity="1" opacity=".6"/><rect id="rect155" width="2.285" height="6.856" x="34.285" y="20.571" fill="#333" fill-opacity="1" opacity=".6"/><rect id="rect157" width="2.285" height="4.572" x="34.285" y="34.285" fill="#333" fill-opacity="1" opacity=".6"/><rect id="rect169" width="2.287" height="2.287" x="36.57" y="27.428" fill="#333" fill-opacity="1" opacity=".6"/><rect id="rect171" width="2.287" height="4.57" x="36.57" y="32" fill="#333" fill-opacity="1" opacity=".6"/><rect id="rect173" width="2.287" height="9.143" x="36.57" y="38.857" fill="#333" fill-opacity="1" opacity=".6"/><rect id="rect181" width="2.285" height="2.286" x="38.857" y="18.285" fill="#333" fill-opacity="1" opacity=".6"/><rect id="rect183" width="2.285" height="4.57" x="38.857" y="22.857" fill="#333" fill-opacity="1" opacity=".6"/><rect id="rect185" width="2.285" height="2.285" x="38.857" y="34.285" fill="#333" fill-opacity="1" opacity=".6"/><rect id="rect187" width="2.285" height="2.284" x="38.857" y="43.43" fill="#333" fill-opacity="1" opacity=".6"/><rect id="rect195" width="2.287" height="9.143" x="41.143" y="18.285" fill="#333" fill-opacity="1" opacity=".6"/><rect id="rect197" width="2.287" height="2.285" x="41.143" y="29.715" fill="#333" fill-opacity="1" opacity=".6"/><rect id="rect199" width="2.287" height="2.285" x="41.143" y="34.285" fill="#333" fill-opacity="1" opacity=".6"/><rect id="rect201" width="2.287" height="6.855" x="41.143" y="38.857" fill="#333" fill-opacity="1" opacity=".6"/><rect id="rect207" width="2.284" height="2.286" x="43.43" y="18.285" fill="#333" fill-opacity="1" opacity=".6"/><rect id="rect209" width="2.284" height="6.857" x="43.43" y="22.857" fill="#333" fill-opacity="1" opacity=".6"/><rect id="rect211" width="2.284" height="2.285" x="43.43" y="32" fill="#333" fill-opacity="1" opacity=".6"/><rect id="rect215" width="2.284" height="2.286" x="43.43" y="45.714" fill="#333" fill-opacity="1" opacity=".6"/><rect id="rect219" width="2.286" height="2.285" x="45.714" y="25.143" fill="#333" fill-opacity="1" opacity=".6"/><rect id="rect223" width="2.286" height="4.572" x="45.714" y="34.285" fill="#333" fill-opacity="1" opacity=".6"/><rect id="rect225" width="2.286" height="2.287" x="45.714" y="41.143" fill="#333" fill-opacity="1" opacity=".6"/></svg>